<?xml version="1.0" encoding="utf-8"?>
<!-- Generator: Adobe Illustrator 22.1.0, SVG Export Plug-In . SVG Version: 6.00 Build 0)  -->
<svg version="1.0" id="Capa_1" xmlns="http://www.w3.org/2000/svg" xmlns:xlink="http://www.w3.org/1999/xlink" x="0px" y="0px"
	 width="540px" height="120px" viewBox="0 0 540 120" enable-background="new 0 0 540 120" xml:space="preserve">
<text transform="matrix(1 0 0 1 271.84 51.36)" font-family="'ProximaNova-Regular'" font-size="12px">Con el respaldo de</text>
<path fill="#387C2C" d="M282.3,74.6c-1.5,0-2.7-1.1-3-2.6h-7.5v9.3c0,0.5,0.4,0.8,0.8,0.8h19.4c0.5,0,0.8-0.4,0.8-0.8v-9.3h-7.6
	C285.1,73.5,283.8,74.6,282.3,74.6z M292.1,61.1h-19.4c-0.5,0-0.8,0.4-0.8,0.8c0,0,0,0,0,0v9.3h7.5c0.3-1.6,1.9-2.7,3.5-2.4
	c1.2,0.2,2.1,1.2,2.4,2.4h7.6v-9.3C292.9,61.5,292.5,61.1,292.1,61.1C292.1,61.1,292.1,61.1,292.1,61.1z"/>
<path fill="#59595C" d="M297.2,86.7c0.6-0.1,1.2-0.2,1.9-0.2c0.8-0.1,1.6,0.2,2.3,0.8c0.4,0.4,0.7,1.1,0.6,1.7
	c0,0.6-0.2,1.3-0.6,1.7c-0.7,0.7-1.6,1-2.5,0.9c-0.3,0-0.7,0-1-0.1v3.7h-0.6L297.2,86.7z M297.7,91c0.4,0.1,0.7,0.2,1.1,0.2
	c1.5,0,2.5-0.7,2.5-2.1s-1-2-2.3-2c-0.4,0-0.8,0-1.2,0.1L297.7,91z M304.8,86.2h0.6l-0.1,9.1h-0.6L304.8,86.2z M312.6,94
	c0,0.5,0,1,0.1,1.5h-0.6l-0.1-0.9l0,0c-0.5,0.6-1.2,1-2,1c-0.9,0.1-1.7-0.6-1.8-1.6c0,0,0-0.1,0-0.1c0-1.4,1.3-2.3,3.8-2.2v-0.2
	c0-0.6-0.1-1.8-1.5-1.8c-0.6,0-1.1,0.1-1.6,0.4l-0.2-0.4c0.5-0.3,1.2-0.5,1.8-0.5c1.8,0,2.1,1.4,2.1,2.4L312.6,94z M312,92.2
	c-1.3-0.1-3.1,0.1-3.1,1.6c-0.1,0.6,0.4,1.2,1,1.3c0.1,0,0.1,0,0.2,0c0.8,0,1.6-0.4,1.8-1.2c0-0.1,0.1-0.2,0.1-0.4L312,92.2z
	 M315.6,94.7c0.4,0.3,0.9,0.4,1.4,0.4c1,0,1.4-0.5,1.5-1.2s-0.4-1-1.3-1.4s-1.6-1-1.5-1.7c0-0.9,0.8-1.7,1.7-1.7c0,0,0.1,0,0.1,0
	c0.5,0,1,0.1,1.4,0.4l-0.2,0.5c-0.4-0.3-0.8-0.4-1.2-0.4c-0.6-0.1-1.1,0.3-1.2,0.9c0,0,0,0,0,0.1c0,0.6,0.4,0.9,1.2,1.3
	c1,0.4,1.6,0.9,1.6,1.9s-0.8,1.7-2.1,1.7c-0.6,0-1.1-0.2-1.6-0.4L315.6,94.7z M322.8,88.1v1.4h1.8v0.5h-1.8v4c0,0.8,0.2,1.3,0.9,1.3
	c0.2,0,0.5,0,0.7-0.1l0.1,0.5c-0.3,0.1-0.6,0.1-0.9,0.1c-0.4,0-0.8-0.1-1-0.4c-0.3-0.4-0.4-1-0.4-1.5l0-3.9h-1v-0.5h1v-1.1
	L322.8,88.1z M327.2,91.3c0-0.6,0-1.2,0-1.8h0.6v1.2l0,0c0.2-0.8,0.9-1.3,1.8-1.4c0.1,0,0.2,0,0.3,0v0.6h-0.3
	c-0.9,0-1.5,0.7-1.6,1.7c0,0.2-0.1,0.4-0.1,0.6v3.4h-0.6L327.2,91.3z M334.4,95.9c-1.6-0.1-2.8-1.4-2.8-3c0-0.1,0-0.2,0-0.2
	c-0.1-1.7,1.1-3.1,2.8-3.2c0.1,0,0.1,0,0.2,0c1.6,0,2.9,1.3,2.8,2.9c0,0.1,0,0.2,0,0.3c0.1,1.7-1.1,3.1-2.8,3.2
	C334.6,95.9,334.5,95.9,334.4,95.9L334.4,95.9z M334.4,95.4c1.4-0.1,2.4-1.2,2.3-2.6c0,0,0-0.1,0-0.1c0.2-1.3-0.8-2.5-2.1-2.7
	c0,0,0,0-0.1,0c-1.6,0-2.3,1.4-2.3,2.7C332,94,333,95.2,334.4,95.4C334.3,95.4,334.4,95.4,334.4,95.4L334.4,95.4z M297.4,62.7
	c2-0.3,4-0.4,6-0.3c2.9,0,5,0.5,6.4,1.6c1.2,1,1.9,2.6,1.8,4.2c-0.1,2.2-1.5,4.1-3.5,4.8V73c1.4,0.6,2.1,1.9,2.6,3.7
	c0.4,1.9,0.9,3.8,1.5,5.6l-4.6-0.1c-0.6-1.5-1-3-1.3-4.6c-0.5-2.5-1.3-3.2-3.2-3.2h-1.4l-0.1,7.8h-4.4L297.4,62.7z M301.8,71.2h1.8
	c2.2,0,3.6-1.1,3.6-2.8s-1.2-2.8-3.2-2.8c-0.7,0-1.3,0-2,0.1L301.8,71.2z M319.6,64c0,1.2-1,2.2-2.3,2.2c0,0-0.1,0-0.1,0
	c-1.2,0.1-2.3-0.9-2.3-2.1c-0.1-1.2,0.9-2.3,2.1-2.3c0.1,0,0.2,0,0.3,0c1.2-0.1,2.3,0.9,2.3,2.1C319.6,64,319.6,64,319.6,64z
	 M314.8,82.3l0.2-14.3h4.5l-0.2,14.3H314.8z M326.3,68.1l1.9,6.7c0.3,1.2,0.6,2.3,0.8,3.5h0.1c0.2-1.2,0.5-2.3,0.8-3.5l2-6.6
	l4.7,0.1L331,82.5l-4.5-0.1l-5.1-14.4L326.3,68.1z M351.9,78.1c0,1.9,0,3.4,0.1,4.6h-3.9l-0.2-2h-0.1c-1,1.5-2.7,2.4-4.5,2.3
	c-2.9,0-5-1.9-5-6.3l0.1-8.4h4.5l-0.1,7.7c0,2.1,0.6,3.4,2.2,3.4c1,0,1.9-0.6,2.2-1.5c0.1-0.3,0.2-0.7,0.2-1l0.1-8.5h4.5L351.9,78.1
	z M355.7,61.9l4.5,0.1l-0.2,20.8l-4.5-0.1L355.7,61.9z M368.4,64.6c0,1.2-1,2.2-2.3,2.2c-0.1,0-0.1,0-0.2,0
	c-1.2,0.1-2.3-0.9-2.4-2.1c-0.1-1.2,0.9-2.3,2.1-2.4c0.1,0,0.2,0,0.3,0c1.2-0.1,2.3,0.9,2.3,2.1C368.4,64.5,368.4,64.5,368.4,64.6
	L368.4,64.6z M363.5,82.9l0.2-14.4l4.5,0.1L368,83L363.5,82.9z M371.6,79c1.2,0.7,2.5,1.1,3.8,1.1c1.4,0,1.9-0.4,1.9-1.2
	s-0.4-1.1-2.1-1.7c-3-1-4.1-2.7-4-4.3c0-2.7,2.3-4.7,5.9-4.7c1.4,0,2.7,0.3,4,0.9l-0.8,3.1c-1-0.5-2-0.8-3.1-0.9
	c-1.1,0-1.7,0.4-1.7,1.2s0.5,1,2.3,1.7c2.7,1,3.8,2.4,3.9,4.5c0,2.7-2.2,4.6-6.3,4.6c-1.6,0-3.2-0.4-4.6-1.1L371.6,79z M282.4,69.3
	c-1.3,0-2.3,1-2.3,2.3c0,1.3,1,2.3,2.3,2.3c1.3,0,2.3-1,2.3-2.3C284.7,70.4,283.7,69.4,282.4,69.3L282.4,69.3z"/>
<path fill="#0B91CF" d="M508.1,83.7c0-0.9,0.7-1.6,1.6-1.6c0.9,0,1.6,0.7,1.6,1.6c0,0.9-0.7,1.6-1.6,1.6c0,0,0,0,0,0
	C508.8,85.3,508.1,84.6,508.1,83.7C508.1,83.7,508,83.7,508.1,83.7z M509.6,85c0.7,0,1.3-0.6,1.3-1.3c0-0.7-0.6-1.3-1.3-1.3
	s-1.3,0.6-1.3,1.3C508.3,84.4,508.9,85,509.6,85z M509.3,84.6H509v-1.8h0.7c0.4,0,0.6,0.2,0.6,0.5c0,0.3-0.2,0.5-0.4,0.5
	c0,0,0,0-0.1,0l0.5,0.8h-0.3l-0.5-0.8h-0.3V84.6z M509.6,83.6c0.2,0,0.4,0,0.4-0.3s-0.2-0.3-0.4-0.3h-0.4v0.6H509.6z M397.1,63.8
	l6,18.7h8.4l6-18.7h-7.5L407.2,74l-2.5-10.3H397.1L397.1,63.8z M431,69.3v13.1h-6.6v-2.6h-3l-0.8,2.6h-7.2l5-15.9h9.6h0.3
	c1.4,0,2.5,1.1,2.6,2.5L431,69.3L431,69.3z M423.5,71.4l-0.9,3.7h1.9v-3.6l0,0c0-0.2-0.2-0.4-0.4-0.4c0,0,0,0,0,0
	c-0.2,0-0.4,0.1-0.5,0.3L423.5,71.4L423.5,71.4z M435.7,82.4c-1.7,0-3.1-1.4-3.1-3.1v0l0,0V66.5h7.3v9.2l0,0c0,0.4,0.3,0.7,0.7,0.7
	h3.3l2,6L435.7,82.4z M448.3,82.4c-1.7,0-3.1-1.4-3.1-3.1l0,0V66.5h7.3v9.2l0,0c0,0.4,0.3,0.7,0.7,0.7h3.3l2,6L448.3,82.4z
	 M487,66.5l-6.6,20h-6.7l1.1-4.1l-4.6-15.9h7l1.4,6.5l1.7-6.5h6.6 M468.5,66.5l1.4,4.7h-5.1v1h5.4l1.1,3.9h-6.6v0.3
	c0,0.4,0.3,0.7,0.7,0.7h6.1l1.6,5.3l-12.2,0c-1.7,0-3-1.4-3-3.1l0,0V66.5H468.5z M515.2,66.1h4.5v-4.6H510c-0.9,0-1.7,0.5-2.2,1.2
	c-1,1.6-2.6,4.4-2.6,4.4s-1-4.8-4.5-5.5c-0.3-0.1-0.6-0.1-0.8-0.1h-8.4v2.6h8.3c1.6,0,2.5,2.7,2.5,2.7c-0.6-0.5-1.4-0.8-2.2-0.8
	h-8.5c0,1.6,0,4.7,0,4.7h4.2c0.5,0,0.9,0.2,1.2,0.5l8.5,14c0,0,8.7-14,8.8-14.2c0.4-0.6,1.1-0.9,1.8-0.8h3.7v-2.3h-4.5
	c-1,0-2,0.4-2.7,1.1l0.8-1.8C513.7,66.6,514.4,66.1,515.2,66.1z M505.4,80.4c-0.5-0.8-6.1-10.3-6.7-11.1c-0.4-0.6-1-1.1-1.7-1.2h1.8
	c1.3,0,1.6,0.7,1.6,0.7l5.9,9.9L505.4,80.4z M511.3,65.4c-1.2,2.1-4.9,8.3-4.9,8.3l-1.1-1.8l4.4-7.5c0,0,0.3-0.6,1.8-0.6h2.5
	C512.8,63.9,511.9,64.5,511.3,65.4L511.3,65.4z"/>
<path fill="#12100B" d="M400.7,88.6h4.5v0.8h-1.8v4.7h-1v-4.7h-1.7L400.7,88.6z M405.7,88.6h0.9v2l0,0c0.3-0.4,0.7-0.6,1.2-0.6
	c0.7-0.1,1.3,0.4,1.4,1.1c0,0.1,0,0.2,0,0.3V94h-0.9v-2.5c0-0.6-0.3-0.9-0.8-0.9c-0.6,0-1,0.4-1,1V94h-0.9L405.7,88.6z M410.8,92.3
	c-0.1,0.6,0.4,1.1,0.9,1.2c0,0,0.1,0,0.1,0c0.5,0.1,0.9-0.2,1-0.7h0.8c-0.2,0.8-0.9,1.4-1.8,1.4c-1,0-1.9-0.8-2-1.8
	c0-0.1,0-0.2,0-0.3c-0.1-1.1,0.7-2,1.8-2.1c1.1-0.1,2,0.7,2.1,1.8c0,0.2,0,0.4,0,0.6L410.8,92.3z M412.8,91.7c0-0.6-0.4-1-1-1
	s-1,0.4-1,1H412.8z M416.6,88.6h1v4.7h2.8v0.8h-3.8L416.6,88.6z M421.6,92.3c-0.1,0.6,0.4,1.1,0.9,1.2c0,0,0.1,0,0.1,0
	c0.5,0.1,0.9-0.2,1-0.7h0.8c-0.2,0.8-0.9,1.4-1.8,1.4c-1,0-1.9-0.8-2-1.8c0-0.1,0-0.2,0-0.3c-0.1-1.1,0.7-2,1.8-2.1
	c1.1-0.1,2,0.7,2.1,1.8c0,0.2,0,0.4,0,0.6L421.6,92.3z M423.7,91.7c0-0.6-0.5-1-1-1s-1,0.5-1,1H423.7z M428.6,93.2
	c0,0.2,0,0.3,0.2,0.3c0.1,0,0.1,0,0.2,0v0.6c-0.2,0.1-0.4,0.1-0.6,0.1c-0.4,0-0.6-0.1-0.7-0.5c-0.4,0.3-0.9,0.5-1.4,0.5
	c-0.7,0.1-1.3-0.4-1.4-1c0,0,0-0.1,0-0.1c0-1,0.8-1.2,1.5-1.2s1.2,0,1.2-0.6s-0.5-0.5-0.8-0.5s-0.8,0.2-0.9,0.6h-0.9
	c0.1-1,0.9-1.3,1.8-1.3s1.6,0.3,1.6,1.2L428.6,93.2z M427.7,92.1c-0.3,0.1-0.7,0.2-1.1,0.2c-0.4,0.1-0.7,0.2-0.7,0.7
	s0.5,0.5,0.8,0.5s1-0.2,1-0.8L427.7,92.1z M433.3,94.1h-0.8v-0.5l0,0c-0.3,0.4-0.7,0.7-1.2,0.7c-1.2,0-1.9-0.9-1.9-2.1
	c0-1.4,0.9-2.1,1.7-2.1c0.5,0,1,0.2,1.3,0.6l0,0v-2h0.9L433.3,94.1z M431.3,93.5c0.8,0,1.1-0.7,1.1-1.4c0-0.9-0.4-1.4-1.1-1.4
	s-1.1,0.7-1.1,1.4S430.5,93.5,431.3,93.5L431.3,93.5z M434.9,92.3c-0.1,0.6,0.4,1.1,0.9,1.2c0.1,0,0.1,0,0.2,0c0.5,0,0.9-0.2,1-0.7
	h0.8c-0.2,0.8-0.9,1.4-1.8,1.4c-1,0-1.9-0.8-2-1.8c0-0.1,0-0.2,0-0.3c-0.1-1.1,0.7-2,1.7-2.1c1.1-0.1,2,0.7,2.1,1.7
	c0,0.2,0,0.4,0,0.6L434.9,92.3z M436.9,91.7c0-0.6-0.4-1-1-1s-1,0.4-1,1H436.9z M438.5,90.1h0.8v0.8l0,0c0.2-0.5,0.6-0.9,1.2-0.9
	c0.1,0,0.2,0,0.3,0v0.8c-0.1,0-0.3,0-0.4,0c-0.6,0-1.1,0.5-1.1,1.4v1.9h-0.9L438.5,90.1z M443.4,88.6h0.9v0.8h-0.9V88.6z
	 M443.4,90.1h0.9v4h-0.9V90.1z M445.2,90.1h0.8v0.6c0.3-0.4,0.7-0.7,1.2-0.7c0.7-0.1,1.3,0.4,1.4,1.1c0,0.1,0,0.2,0,0.3v2.7h-0.9
	v-2.5c0-0.6-0.3-0.9-0.8-0.9c-0.6,0-1,0.4-1,1V94h-0.9L445.2,90.1z M451.9,88.6h2.4c1.6,0,1.9,1,1.9,1.7s-0.3,1.7-1.9,1.7h-1.5v2.1
	h-1L451.9,88.6z M452.9,91.2h1.4c0.5,0.1,0.9-0.3,1-0.7c0-0.1,0-0.1,0-0.2c0-0.7-0.4-0.9-1-0.9h-1.4L452.9,91.2z M456.9,90.1h0.8
	v0.8l0,0c0.2-0.5,0.6-0.9,1.2-0.9c0.1,0,0.2,0,0.3,0v0.8c-0.1,0-0.2,0-0.4,0c-0.6,0-1.1,0.5-1.1,1.4v1.9h-0.9L456.9,90.1z
	 M460.2,92.3c-0.1,0.6,0.4,1.1,0.9,1.2c0,0,0.1,0,0.1,0c0.5,0.1,0.9-0.2,1-0.7h0.8c-0.2,0.8-0.9,1.4-1.8,1.4c-1,0-1.9-0.8-2-1.8
	c0-0.1,0-0.2,0-0.3c-0.1-1.1,0.7-2,1.8-2.1c1.1-0.1,2,0.7,2.1,1.8c0,0.2,0,0.4,0,0.6L460.2,92.3z M462.2,91.7c0-0.6-0.5-1-1-1
	s-1,0.5-1,1H462.2z M466.5,91.4c-0.1-0.5-0.5-0.8-0.9-0.8c-0.5,0-1.1,0.2-1.1,1.4c0,0.7,0.3,1.4,1.1,1.4c0.5,0,1-0.4,1-0.9h0.9
	c-0.1,0.9-0.9,1.7-1.8,1.6c0,0,0,0,0,0c-1,0-1.9-0.8-1.9-1.8c0-0.1,0-0.2,0-0.3c-0.1-1.1,0.6-2,1.7-2.1c0.1,0,0.2,0,0.3,0
	c0.9-0.1,1.7,0.5,1.8,1.4c0,0,0,0,0,0H466.5z M468.1,88.6h0.9v0.8h-0.9L468.1,88.6z M468.1,90.1h0.9v4h-0.9L468.1,90.1z M470.6,92.8
	c0,0.5,0.4,0.7,0.9,0.7s0.9-0.1,0.9-0.5s-0.7-0.5-1.3-0.7s-1.3-0.4-1.3-1.2s0.9-1.1,1.7-1.1s1.6,0.3,1.7,1.2h-0.9
	c-0.1-0.4-0.4-0.5-0.8-0.5s-0.7,0.1-0.7,0.4s0.6,0.5,1.3,0.6s1.3,0.4,1.3,1.2c0,0.9-1,1.3-1.8,1.3c-1,0-1.8-0.4-1.8-1.4L470.6,92.8z
	 M474,88.6h0.9v0.8H474V88.6z M474,90.1h0.9v4H474V90.1z M475.6,92.1c0.1-1.1,1-1.9,2.1-1.9c1.1,0.1,1.9,1,1.9,2.1
	c-0.1,1.1-0.9,1.9-2,1.9c-1.1,0-2-0.8-2-1.8C475.6,92.2,475.6,92.2,475.6,92.1z M478.7,92.1c0-0.7-0.3-1.4-1.1-1.4s-1.1,0.7-1.1,1.4
	s0.3,1.4,1.1,1.4S478.7,92.8,478.7,92.1L478.7,92.1z M480.4,90.1h0.8v0.6c0.3-0.4,0.7-0.7,1.2-0.7c0.7-0.1,1.3,0.4,1.4,1.1
	c0,0.1,0,0.2,0,0.3v2.7H483v-2.5c0-0.6-0.3-0.9-0.8-0.9c-0.6,0-1,0.4-1,1V94h-0.9V90.1z M487,88.6h1v5.5h-1V88.6z M489.1,90.1h0.8
	v0.8l0,0c0.2-0.5,0.6-0.9,1.2-0.9c0.1,0,0.2,0,0.3,0v0.8c-0.1,0-0.3,0-0.4,0c-0.6,0-1.1,0.5-1.1,1.4v1.9H489L489.1,90.1z
	 M491.8,90.1h0.8v0.8l0,0c0.2-0.5,0.6-0.9,1.2-0.9c0.1,0,0.2,0,0.3,0v0.8c-0.1,0-0.3,0-0.4,0c-0.6,0-1.1,0.5-1.1,1.4v1.9h-0.9
	L491.8,90.1z M494.5,88.6h0.9v0.8h-0.9V88.6z M494.5,90.1h0.9v4h-0.9V90.1z M500,93.8c0,1.2-0.7,1.8-2,1.8c-0.8,0-1.7-0.3-1.8-1.2
	h0.9c0.1,0.5,0.5,0.6,1,0.6c0.5,0.1,0.9-0.3,1-0.8c0-0.1,0-0.1,0-0.2v-0.6l0,0c-0.2,0.4-0.7,0.7-1.2,0.7c-1.3,0-1.8-1-1.8-2.1
	c-0.1-1,0.6-1.9,1.7-2c0,0,0.1,0,0.1,0c0.5,0,0.9,0.2,1.2,0.7l0,0v-0.5h1V93.8z M499.1,92c0-0.7-0.3-1.3-1.1-1.3s-1,0.7-1,1.4
	s0.3,1.3,1,1.3S499.1,92.7,499.1,92z M504.2,93.2c0,0.2,0,0.3,0.2,0.3c0.1,0,0.1,0,0.2,0v0.6c-0.2,0.1-0.4,0.1-0.5,0.1
	c-0.4,0-0.6-0.1-0.7-0.5c-0.4,0.3-0.9,0.5-1.4,0.5c-0.7,0.1-1.3-0.4-1.4-1.1c0,0,0-0.1,0-0.1c0-1,0.8-1.2,1.5-1.2s1.2,0,1.2-0.6
	s-0.5-0.5-0.8-0.5s-0.8,0.2-0.9,0.6h-0.9c0.1-1,0.9-1.3,1.8-1.3s1.6,0.3,1.6,1.2V93.2z M503.4,92.1c-0.3,0.1-0.7,0.2-1.1,0.2
	c-0.4,0.1-0.7,0.2-0.7,0.7s0.5,0.5,0.8,0.5s1-0.2,1-0.8L503.4,92.1z M504.8,90.1h0.7v-1.2h0.9v1.2h0.8v0.7h-0.8v2.1
	c0,0.4,0,0.6,0.4,0.6c0.1,0,0.2,0,0.4,0v0.7c-0.2,0-0.4,0-0.6,0c-0.9,0-1.1-0.4-1.1-1v-2.4h-0.7V90.1z M507.8,88.6h0.9v0.8h-0.9
	V88.6z M507.8,90.1h0.9v4h-0.9V90.1z M509.4,92.1c0.1-1.1,1-1.9,2.1-1.9c1.1,0.1,1.9,1,1.9,2.1c-0.1,1.1-0.9,1.9-2,1.9
	c-1.1,0-2-0.8-2-1.8C509.4,92.2,509.4,92.2,509.4,92.1z M512.6,92.1c0-0.7-0.3-1.4-1.1-1.4s-1.1,0.7-1.1,1.4s0.4,1.4,1.1,1.4
	C512.2,93.5,512.6,92.8,512.6,92.1z M514.2,90.1h0.8v0.6c0.3-0.4,0.7-0.7,1.2-0.7c0.7-0.1,1.3,0.4,1.4,1.1c0,0.1,0,0.2,0,0.3v2.7
	h-0.9v-2.5c0-0.6-0.3-0.9-0.8-0.9c-0.6,0-1,0.4-1,1V94h-0.9L514.2,90.1z M518.2,93.4c0-0.4,0.3-0.8,0.7-0.8s0.8,0.3,0.8,0.7
	c0,0.4-0.3,0.8-0.7,0.8c0,0,0,0,0,0C518.6,94.2,518.2,93.8,518.2,93.4C518.2,93.4,518.2,93.4,518.2,93.4z M519,94
	c0.3,0,0.6-0.3,0.6-0.6c0,0,0,0,0,0c0-0.3-0.2-0.6-0.5-0.7c-0.3,0-0.6,0.2-0.7,0.5c0,0.1,0,0.1,0,0.2C518.3,93.8,518.6,94,519,94
	C519,94,519,94,519,94L519,94z M518.8,93.8h-0.1V93h0.3c0.2,0,0.3,0.1,0.3,0.2c0,0.1-0.1,0.2-0.2,0.2c0,0,0,0,0,0l0.2,0.4h-0.1
	l-0.2-0.4h-0.2L518.8,93.8L518.8,93.8z M519,93.4c0.1,0,0.2,0,0.2-0.1s-0.1-0.1-0.2-0.1h-0.2v0.3H519z"/>
<path fill="#585856" d="M31.8,86.7l-0.2,1h-4.9l-0.5,2.6h4.8l-0.2,1h-4.8l-0.6,2.9h5.3l-0.2,1H24l1.8-8.4L31.8,86.7z M34.4,86.7
	l-1.8,8.4h-1l1.8-8.4H34.4z M44.1,86.7l-1.8,8.4h-1l0.2-0.9c-0.4,0.6-1.1,1-1.8,1c-0.3,0-0.6,0-0.8-0.2c-0.2-0.1-0.5-0.3-0.6-0.5
	c-0.2-0.2-0.3-0.5-0.4-0.8c-0.1-0.3-0.1-0.7-0.1-1c0-0.4,0-0.8,0.1-1.2c0.1-0.4,0.2-0.7,0.4-1.1c0.3-0.6,0.8-1.1,1.5-1.4
	c0.3-0.1,0.6-0.2,0.9-0.2c0.8,0,1.4,0.4,1.8,1.1l0.7-3.3L44.1,86.7z M42.1,91.3c0-0.4-0.1-0.8-0.4-1.1c-0.3-0.3-0.6-0.4-1-0.4
	c-0.6,0-1.1,0.4-1.4,0.9c-0.4,0.6-0.6,1.2-0.6,1.9c0,0.3,0,0.7,0.2,1c0.1,0.2,0.2,0.5,0.4,0.6c0.2,0.2,0.4,0.2,0.7,0.2
	c0.4,0,0.7-0.2,1-0.4c0.3-0.3,0.6-0.7,0.7-1.1C42,92.3,42.1,91.8,42.1,91.3L42.1,91.3z M46.3,89L45,95.1h-1l1.3-6.1H46.3z
	 M46.8,86.7l-0.2,1.2h-1l0.2-1.2H46.8z M51,86.7l-0.2,0.9c-0.3-0.1-0.6-0.1-0.9-0.1c-0.1,0-0.2,0-0.3,0.1c-0.1,0.1-0.2,0.1-0.2,0.2
	c-0.1,0.2-0.2,0.4-0.2,0.6L49.1,89h1.2l-0.2,0.8h-1.1l-1.1,5.3h-1l1.1-5.3H47l0.2-0.8h0.9l0.2-0.9c0-0.3,0.1-0.5,0.2-0.8
	c0.1-0.2,0.2-0.3,0.3-0.4c0.1-0.1,0.3-0.2,0.5-0.3c0.2-0.1,0.4-0.1,0.7-0.1C50.3,86.6,50.6,86.7,51,86.7z M55.7,92.3h-4.5
	c0,0.1,0,0.2,0,0.3c0,0.4,0.1,0.9,0.4,1.2c0.2,0.3,0.6,0.5,1,0.5c0.8,0,1.6-0.6,1.8-1.4l1,0.1c-0.2,0.6-0.6,1.1-1.1,1.5
	c-0.5,0.4-1.1,0.6-1.8,0.6c-0.7,0-1.3-0.2-1.8-0.7c-0.4-0.5-0.6-1.2-0.6-1.8c0-0.7,0.2-1.3,0.5-1.9c0.2-0.6,0.6-1,1.2-1.4
	c0.5-0.3,1.1-0.5,1.6-0.5c0.6,0,1.3,0.2,1.7,0.7c0.4,0.5,0.7,1.2,0.6,1.8C55.7,91.7,55.7,92,55.7,92.3z M51.4,91.5h3.4v-0.3
	c0-0.2,0-0.3-0.1-0.5c0-0.1-0.1-0.3-0.2-0.4c-0.1-0.1-0.2-0.2-0.3-0.3c-0.1-0.1-0.2-0.2-0.4-0.2c-0.2,0-0.3-0.1-0.5-0.1
	C52.4,89.7,51.7,90.3,51.4,91.5z M60.9,89.1l-0.4,1c-0.2-0.1-0.4-0.2-0.6-0.2c-1,0-1.6,0.9-2,2.8l-0.5,2.4h-1l1.3-6.2h0.9l-0.3,1.2
	c0.6-0.9,1.2-1.4,1.8-1.4C60.4,88.9,60.7,89,60.9,89.1z M66.1,92.3h-4.5c0,0.1,0,0.2,0,0.3c0,0.4,0.1,0.9,0.3,1.2
	c0.2,0.3,0.6,0.5,1,0.5c0.8,0,1.6-0.6,1.8-1.4l1,0.1c-0.2,0.6-0.6,1.1-1.1,1.5c-0.5,0.4-1.1,0.6-1.8,0.6c-0.7,0-1.3-0.2-1.8-0.7
	c-0.4-0.5-0.6-1.2-0.6-1.8c0-0.7,0.2-1.3,0.5-1.9c0.2-0.6,0.6-1,1.1-1.4c0.5-0.3,1.1-0.5,1.7-0.5c0.6,0,1.3,0.2,1.7,0.7
	c0.4,0.5,0.7,1.2,0.6,1.8C66.2,91.7,66.1,92,66.1,92.3z M61.8,91.5h3.4v-0.3c0-0.2,0-0.3-0.1-0.5c0-0.1-0.1-0.3-0.2-0.4
	c-0.1-0.1-0.2-0.2-0.3-0.3c-0.1-0.1-0.2-0.2-0.4-0.2c-0.2,0-0.3-0.1-0.5-0.1C62.8,89.7,62.1,90.3,61.8,91.5z M71.7,95.1h-1l0.8-3.8
	c0.1-0.3,0.1-0.6,0.1-0.8c0-0.5-0.3-0.7-0.8-0.7c-1.2,0-2,0.8-2.3,2.5l-0.6,2.8h-1l1.2-6.1H69l-0.2,1.1c0.6-0.7,1.4-1.1,2.2-1.2
	c0.4,0,0.8,0.1,1.2,0.4c0.3,0.3,0.5,0.7,0.4,1.1c0,0.4-0.1,0.7-0.2,1.1L71.7,95.1z M78.9,90.9l-1,0.1c0.1-0.6-0.3-1.1-0.9-1.2
	c-0.1,0-0.2,0-0.3,0c-0.4,0-0.8,0.1-1.1,0.4c-0.3,0.3-0.6,0.8-0.7,1.2c-0.2,0.5-0.2,1-0.2,1.5c0,1,0.4,1.6,1.2,1.6s1.3-0.5,1.7-1.6
	l1,0.1c-0.3,1.3-1.4,2.2-2.7,2.2c-0.4,0-0.8-0.1-1.1-0.2c-0.3-0.2-0.6-0.5-0.8-0.8c-0.2-0.4-0.3-0.9-0.3-1.4c0-0.5,0.1-1.1,0.2-1.6
	c0.2-0.5,0.4-0.9,0.7-1.2c0.3-0.3,0.6-0.6,1-0.8c0.4-0.2,0.9-0.3,1.3-0.3c0.4,0,0.8,0.1,1.1,0.2c0.3,0.2,0.6,0.4,0.7,0.7
	C78.9,90.2,78.9,90.6,78.9,90.9z M81.5,89l-1.3,6.1h-1l1.2-6.1H81.5z M81.9,86.7l-0.2,1.2h-1l0.2-1.2H81.9z M87.1,95.1H86
	c-0.1-0.2-0.1-0.5-0.1-0.8c-0.6,0.5-1.3,0.9-2.1,0.9c-0.3,0-0.6-0.1-0.9-0.2c-0.3-0.1-0.5-0.3-0.7-0.6c-0.3-0.5-0.3-1.2-0.1-1.7
	c0.1-0.2,0.2-0.4,0.4-0.6c0.2-0.2,0.4-0.3,0.6-0.4c0.2-0.1,0.4-0.1,0.7-0.2c0.2,0,0.7-0.1,1.3-0.1c0.5,0,0.9-0.1,1.3-0.2
	c0.1-0.2,0.1-0.5,0.1-0.7c0-0.6-0.4-0.8-1.3-0.8c-0.7-0.1-1.4,0.4-1.7,1.1l-1-0.1c0.4-1.2,1.5-2,2.8-1.9c0.4,0,0.8,0.1,1.2,0.2
	c0.3,0.1,0.6,0.3,0.8,0.5c0.2,0.2,0.3,0.5,0.3,0.9c0,0.4-0.1,0.8-0.1,1.1l-0.3,1.5C87,93.5,87,93.9,87,94.3
	C87,94.6,87,94.8,87.1,95.1z M86.3,92c-0.4,0.1-0.8,0.2-1.2,0.2c-0.4,0-0.7,0.1-1.1,0.1c-0.3,0.1-0.6,0.2-0.8,0.4
	c-0.2,0.2-0.3,0.4-0.2,0.7c0,0.7,0.4,1,1.2,1C85.3,94.4,86,93.6,86.3,92z M91,86.7l-1.8,8.4h-1l1.8-8.4H91z M95.4,94.1l-0.7,3.3h-1
	l1.7-8.4h1l-0.2,0.8c0.4-0.6,1.1-0.9,1.8-1c0.6,0,1.1,0.2,1.5,0.7c0.4,0.5,0.6,1.1,0.5,1.8c0,1-0.3,2-0.9,2.8c-0.5,0.6-1.2,1-2,1.1
	C96.4,95.2,95.7,94.8,95.4,94.1z M99,91.3c0-0.3,0-0.6-0.2-0.9c-0.1-0.2-0.3-0.4-0.4-0.6c-0.2-0.1-0.4-0.2-0.7-0.2
	c-0.4,0-0.7,0.1-1,0.4c-0.3,0.3-0.5,0.7-0.7,1.1c-0.2,0.5-0.3,0.9-0.3,1.4c0,0.3,0,0.6,0.1,0.9c0.1,0.2,0.1,0.3,0.3,0.5
	c0.1,0.1,0.3,0.2,0.4,0.3c0.2,0.1,0.4,0.1,0.6,0.1c0.6,0,1.2-0.4,1.4-1C98.8,92.8,99,92.1,99,91.3z M105.9,95.1h-1
	c-0.1-0.2-0.1-0.5-0.1-0.8c-0.6,0.5-1.3,0.9-2.1,0.9c-0.3,0-0.6-0.1-0.9-0.2c-0.3-0.1-0.5-0.3-0.7-0.6c-0.2-0.3-0.3-0.6-0.3-1
	c0-0.3,0-0.5,0.1-0.8c0.1-0.2,0.2-0.4,0.4-0.6c0.2-0.2,0.4-0.3,0.6-0.4c0.2-0.1,0.4-0.1,0.7-0.2c0.2,0,0.7-0.1,1.3-0.1
	c0.5,0,0.9-0.1,1.3-0.2c0.1-0.2,0.1-0.5,0.1-0.7c0-0.6-0.4-0.8-1.3-0.8c-0.7-0.1-1.4,0.4-1.7,1.1l-1-0.1c0.4-1.2,1.5-2,2.8-1.9
	c0.4,0,0.8,0.1,1.2,0.2c0.3,0.1,0.6,0.3,0.8,0.5c0.2,0.2,0.3,0.5,0.3,0.9c0,0.4-0.1,0.8-0.2,1.1l-0.4,1.5c-0.1,0.4-0.2,0.8-0.2,1.2
	C105.8,94.6,105.9,94.8,105.9,95.1z M105.2,92c-0.4,0.1-0.8,0.2-1.2,0.2c-0.4,0-0.7,0.1-1.1,0.1c-0.3,0.1-0.5,0.2-0.8,0.4
	c-0.2,0.2-0.3,0.4-0.3,0.7c0,0.7,0.4,1,1.2,1C104.2,94.4,104.9,93.6,105.2,92z M111.7,89.1l-0.4,1c-0.2-0.1-0.4-0.2-0.6-0.2
	c-1,0-1.6,0.9-2,2.8l-0.5,2.4h-1l1.3-6.2h0.9l-0.3,1.2c0.6-0.9,1.2-1.4,1.8-1.4C111.2,88.9,111.5,89,111.7,89.1z M116.4,95.1h-1
	c-0.1-0.2-0.1-0.5-0.1-0.8c-0.6,0.5-1.3,0.9-2.1,0.9c-0.3,0-0.6-0.1-0.9-0.2c-0.3-0.1-0.5-0.3-0.7-0.6c-0.3-0.5-0.3-1.2-0.1-1.7
	c0.1-0.2,0.2-0.4,0.4-0.6c0.2-0.2,0.4-0.3,0.6-0.4c0.2-0.1,0.4-0.1,0.7-0.2c0.2,0,0.7-0.1,1.3-0.1c0.5,0,0.9-0.1,1.3-0.2
	c0.1-0.2,0.1-0.5,0.1-0.7c0-0.6-0.4-0.8-1.3-0.8c-0.7-0.1-1.4,0.4-1.7,1.1l-1-0.1c0.4-1.2,1.5-2,2.8-1.9c0.4,0,0.8,0.1,1.2,0.2
	c0.3,0.1,0.6,0.3,0.8,0.5c0.2,0.2,0.3,0.5,0.3,0.9c0,0.4-0.1,0.8-0.1,1.1l-0.3,1.5c-0.1,0.4-0.1,0.8-0.2,1.2
	C116.3,94.6,116.3,94.8,116.4,95.1z M115.6,92c-0.4,0.1-0.8,0.2-1.2,0.2c-0.4,0-0.7,0.1-1.1,0.1c-0.3,0.1-0.6,0.2-0.8,0.4
	c-0.2,0.2-0.3,0.4-0.2,0.7c0,0.7,0.4,1,1.2,1C114.6,94.4,115.3,93.6,115.6,92z M126.3,90.8l-1,0.1c0-0.8-0.5-1.2-1.4-1.2
	c-0.3,0-0.5,0.1-0.8,0.2c-0.2,0.1-0.4,0.3-0.4,0.6c0,0.1,0,0.2,0.1,0.3c0.1,0.1,0.2,0.2,0.3,0.3c0.3,0.2,0.5,0.3,0.8,0.4
	c0.4,0.2,0.9,0.4,1.3,0.6c0.2,0.1,0.4,0.4,0.5,0.6c0.1,0.2,0.2,0.5,0.2,0.7c0,0.3-0.1,0.5-0.2,0.8c-0.1,0.2-0.3,0.4-0.6,0.6
	c-0.2,0.2-0.5,0.3-0.8,0.4c-0.3,0.1-0.6,0.1-0.9,0.1c-0.3,0-0.7,0-1-0.1c-0.3-0.1-0.5-0.2-0.7-0.4c-0.2-0.1-0.3-0.3-0.4-0.5
	c-0.1-0.2-0.2-0.3-0.2-0.5c0-0.2-0.1-0.5-0.1-0.7l1-0.1c0,0.4,0.1,0.8,0.4,1.1c0.3,0.2,0.7,0.4,1.1,0.4c0.9,0,1.4-0.3,1.4-0.9
	c0-0.4-0.4-0.8-1.2-1.1c-0.3-0.1-0.7-0.3-1-0.5c-0.2-0.1-0.3-0.2-0.4-0.3c-0.1-0.1-0.2-0.3-0.3-0.4c-0.1-0.2-0.1-0.3-0.1-0.5
	c0-0.5,0.2-1,0.6-1.3c0.4-0.3,1-0.5,1.6-0.5c0.6,0,1.2,0.1,1.7,0.5C126.1,89.8,126.3,90.3,126.3,90.8z M132.9,89l-1.3,6.1h-1
	l0.2-1.1c-0.5,0.7-1.3,1.2-2.2,1.2c-0.4,0-0.8-0.1-1.1-0.4c-0.3-0.2-0.5-0.6-0.4-1c0-0.4,0.1-0.9,0.2-1.3L128,89h1l-0.8,3.9
	c-0.1,0.2-0.1,0.5-0.1,0.8c0,0.5,0.3,0.7,0.8,0.7c0.2,0,0.5,0,0.7-0.1c0.2-0.1,0.4-0.2,0.6-0.4c0.2-0.2,0.4-0.4,0.5-0.6
	c0.1-0.2,0.2-0.4,0.3-0.7c0.1-0.3,0.2-0.7,0.3-1l0.6-2.6L132.9,89z M137.7,94.1l-0.7,3.3h-1l1.8-8.4h0.9l-0.2,0.8
	c0.4-0.6,1.1-0.9,1.8-1c0.6,0,1.1,0.2,1.5,0.7c0.4,0.5,0.6,1.1,0.5,1.8c0,1-0.3,2-0.9,2.8c-0.5,0.6-1.2,1-2,1.1
	C138.7,95.2,138,94.8,137.7,94.1z M141.3,91.3c0-0.3,0-0.6-0.2-0.9c-0.1-0.2-0.3-0.4-0.4-0.6c-0.2-0.1-0.4-0.2-0.7-0.2
	c-0.4,0-0.7,0.1-1,0.4c-0.3,0.3-0.6,0.7-0.8,1.1c-0.2,0.5-0.3,0.9-0.3,1.4c0,0.3,0,0.6,0.1,0.9c0.1,0.2,0.1,0.3,0.3,0.5
	c0.1,0.1,0.3,0.2,0.4,0.3c0.2,0.1,0.4,0.1,0.6,0.1c0.6,0,1.2-0.4,1.4-1C141.1,92.8,141.3,92.1,141.3,91.3z M147.5,89.1l-0.4,1
	c-0.2-0.1-0.4-0.2-0.6-0.2c-0.9,0-1.6,0.9-2,2.8l-0.5,2.4h-1l1.3-6.1h0.9l-0.3,1.2c0.6-0.9,1.2-1.4,1.8-1.4
	C147,88.9,147.3,89,147.5,89.1z M152.8,91.4c0,0.5-0.1,1-0.2,1.5c-0.3,0.9-0.9,1.6-1.7,2c-0.4,0.2-0.8,0.3-1.3,0.3
	c-1.3,0.1-2.4-0.8-2.5-2.1c0-0.1,0-0.2,0-0.4c0-1,0.3-2,0.9-2.8c0.6-0.7,1.5-1.2,2.4-1.1c0.4,0,0.8,0.1,1.2,0.3
	c0.4,0.2,0.7,0.5,0.9,0.8C152.8,90.4,152.9,90.9,152.8,91.4z M151.8,91.4c0-0.5-0.1-0.9-0.4-1.3c-0.3-0.3-0.7-0.5-1.1-0.5
	c-0.3,0-0.6,0.1-0.8,0.2c-0.3,0.2-0.5,0.4-0.7,0.6c-0.2,0.3-0.4,0.6-0.5,1c-0.1,0.4-0.2,0.8-0.2,1.2c0,0.3,0,0.6,0.2,0.9
	c0.2,0.5,0.7,0.9,1.3,0.8c0.4,0,0.8-0.1,1.1-0.4c0.4-0.3,0.6-0.7,0.8-1.2C151.7,92.5,151.8,91.9,151.8,91.4L151.8,91.4z M160,86.7
	l-1.8,8.4h-0.9l0.2-0.9c-0.4,0.6-1.1,1-1.9,1c-0.3,0-0.6,0-0.8-0.2c-0.2-0.1-0.5-0.3-0.6-0.5c-0.2-0.2-0.3-0.5-0.4-0.8
	c-0.1-0.3-0.1-0.7-0.1-1c0-0.4,0-0.8,0.1-1.2c0.1-0.4,0.2-0.7,0.4-1.1c0.3-0.6,0.8-1.1,1.5-1.4c0.3-0.1,0.6-0.2,0.9-0.2
	c0.7,0,1.4,0.4,1.7,1.1l0.7-3.3L160,86.7z M158,91.3c0-0.4-0.1-0.8-0.4-1.1c-0.3-0.3-0.6-0.4-1-0.4c-0.6,0-1.1,0.4-1.4,0.9
	c-0.4,0.6-0.6,1.2-0.6,1.9c0,0.3,0,0.7,0.1,1c0.1,0.2,0.2,0.5,0.4,0.6c0.2,0.2,0.4,0.2,0.7,0.2c0.4,0,0.7-0.2,1-0.4
	c0.3-0.3,0.6-0.7,0.7-1.1C157.9,92.3,158,91.8,158,91.3z M166.1,89l-1.3,6.1h-1L164,94c-0.5,0.7-1.4,1.2-2.2,1.2
	c-0.4,0-0.8-0.1-1.1-0.4c-0.3-0.2-0.5-0.6-0.4-1c0-0.4,0.1-0.9,0.2-1.3l0.8-3.5h1l-0.8,3.9c-0.1,0.3-0.1,0.5-0.1,0.8
	c0,0.5,0.3,0.7,0.8,0.7c0.5,0,0.9-0.2,1.3-0.5c0.2-0.2,0.4-0.4,0.5-0.6c0.1-0.2,0.2-0.4,0.3-0.7c0.1-0.2,0.2-0.6,0.3-1L165,89H166.1
	z M172,90.9l-1,0.1c0.1-0.6-0.3-1.1-0.9-1.2c-0.1,0-0.2,0-0.3,0c-0.4,0-0.8,0.1-1.1,0.4c-0.3,0.3-0.6,0.8-0.7,1.2
	c-0.2,0.5-0.2,1-0.2,1.5c0,1,0.4,1.6,1.2,1.6s1.3-0.5,1.7-1.6l1,0.1c-0.3,1.3-1.4,2.2-2.7,2.2c-0.4,0-0.8-0.1-1.1-0.2
	c-0.3-0.2-0.6-0.5-0.8-0.8c-0.2-0.4-0.3-0.9-0.3-1.4c0-0.5,0.1-1.1,0.2-1.6c0.1-0.5,0.4-0.9,0.7-1.3c0.3-0.3,0.6-0.6,1-0.8
	c0.4-0.2,0.9-0.3,1.3-0.3c0.4,0,0.8,0.1,1.1,0.2c0.3,0.2,0.6,0.4,0.7,0.7C171.9,90.2,172,90.5,172,90.9z M177.9,90.9l-1,0.1
	c0.1-0.6-0.3-1.1-0.9-1.2c-0.1,0-0.2,0-0.3,0c-0.4,0-0.8,0.1-1.1,0.4c-0.3,0.3-0.6,0.8-0.7,1.2c-0.2,0.5-0.2,1-0.2,1.5
	c0,1,0.4,1.6,1.2,1.6s1.3-0.5,1.7-1.6l1,0.1c-0.3,1.3-1.4,2.2-2.7,2.2c-0.4,0-0.8-0.1-1.1-0.2c-0.3-0.2-0.6-0.5-0.8-0.8
	c-0.2-0.4-0.3-0.9-0.3-1.4c0-0.5,0.1-1.1,0.2-1.6c0.1-0.5,0.4-0.9,0.7-1.3c0.3-0.3,0.6-0.6,1-0.8c0.4-0.2,0.9-0.3,1.3-0.3
	c0.4,0,0.8,0.1,1.1,0.2c0.3,0.2,0.6,0.4,0.7,0.7C177.8,90.2,177.9,90.5,177.9,90.9z M180.4,89l-1.3,6.1h-1l1.2-6.1H180.4z
	 M180.9,86.7l-0.2,1.2h-1l0.2-1.2H180.9z M186.7,91.4c0,0.5-0.1,1-0.2,1.5c-0.1,0.4-0.4,0.8-0.7,1.2c-0.3,0.3-0.7,0.6-1.1,0.8
	c-0.4,0.2-0.8,0.3-1.3,0.3c-1.3,0.1-2.4-0.8-2.5-2.1c0-0.1,0-0.2,0-0.4c0-1,0.3-2,0.9-2.8c0.6-0.7,1.5-1.2,2.4-1.1
	c0.4,0,0.8,0.1,1.2,0.3c0.4,0.2,0.7,0.5,0.9,0.8C186.6,90.4,186.7,90.9,186.7,91.4z M185.7,91.4c0-0.5-0.1-0.9-0.4-1.3
	c-0.3-0.3-0.7-0.5-1.1-0.5c-0.3,0-0.6,0.1-0.8,0.2c-0.3,0.2-0.5,0.4-0.7,0.6c-0.2,0.3-0.4,0.6-0.5,1c-0.1,0.4-0.2,0.8-0.2,1.2
	c0,0.3,0.1,0.6,0.2,0.9c0.1,0.2,0.3,0.5,0.5,0.6c0.2,0.2,0.5,0.2,0.8,0.2c0.4,0,0.8-0.1,1.1-0.4c0.4-0.3,0.6-0.7,0.8-1.2
	C185.6,92.5,185.7,91.9,185.7,91.4L185.7,91.4z M184.1,88.3l1.1-1.6h1.4l-1.6,1.6L184.1,88.3z M192.1,95.1h-1l0.8-3.8
	c0.1-0.3,0.1-0.6,0.1-0.8c0-0.5-0.3-0.7-0.8-0.7c-1.2,0-2,0.8-2.3,2.5l-0.6,2.8h-1l1.2-6.1h0.9l-0.2,1.1c0.6-0.7,1.4-1.1,2.2-1.2
	c0.4,0,0.8,0.1,1.1,0.4c0.3,0.3,0.4,0.7,0.4,1.1c0,0.4-0.1,0.7-0.1,1.1L192.1,95.1z"/>
<path fill="#4EAD33" d="M157.4,82.1l3.4-17.7h5.7l-0.6,3l-0.3,1.1l0,0c0.6-1.2,1.5-2.3,2.6-3.1c1-0.8,2.3-1.2,3.6-1.3
	c0.2,0,0.5,0,1,0.1l-1.1,5.8l-1.2-0.1c-0.7,0-1.5,0.2-2.2,0.5c-0.9,0.5-1.7,1.2-2.3,2c-0.8,1.1-1.4,2.3-1.6,3.7l-1.2,6L157.4,82.1z
	 M172,82.1l3.4-17.7h5.9l-3.5,17.7H172z M175.9,62.2l0.9-4.6h5.8l-0.9,4.6H175.9z M182.4,74.8c-0.1-2.8,1-5.6,2.9-7.7
	c1.9-2,4.5-3.2,7.3-3.1c2-0.1,4.1,0.5,5.6,1.9c1.3,1.3,2,3.1,1.9,5c0,1.2-0.3,2.3-0.6,3.5h-11.1v0.2c0,0.8,0.3,1.6,0.9,2.1
	c0.7,0.6,1.6,0.9,2.5,0.8c1.9-0.1,3.7-0.7,5.2-1.7l1.5,4.4c-1,0.7-2,1.2-3.2,1.6c-1.3,0.5-2.6,0.7-3.9,0.7c-2.4,0.2-4.8-0.6-6.7-2.2
	C183.2,78.9,182.4,76.9,182.4,74.8z M189.1,71h5.2c0-0.2,0-0.4,0-0.6c0-0.5-0.1-1.1-0.5-1.5c-0.4-0.4-0.9-0.6-1.4-0.6
	C190.9,68.4,189.5,69.5,189.1,71z M203.2,83.2c1.5,0.8,3.1,1.2,4.8,1.1c1.1,0,2.2-0.3,3.1-0.8c0.9-0.6,1.5-1.5,1.7-2.6l0.1-0.6
	l0.1-0.7l0,0c-1.1,1.2-2.6,1.9-4.2,1.8c-1.9,0.1-3.8-0.6-5.1-2.1c-1.2-1.5-1.8-3.4-1.8-5.3c0-2.6,0.9-5.1,2.6-7.1
	c1.7-2.1,4.2-3.2,6.8-3.2c2.2,0,3.8,0.6,4.7,1.9h0.1c0-0.2,0-0.4,0.1-0.6l0.2-0.9h5.6l-3.2,16.4c-0.4,2.6-1.8,4.9-3.8,6.4
	c-2,1.3-4.3,2-6.7,2c-2.6,0.1-5.1-0.5-7.3-1.8L203.2,83.2z M207.9,73.7c0,0.8,0.2,1.5,0.7,2.2c0.5,0.6,1.2,0.9,2,0.8
	c1.2,0,2.4-0.6,3-1.7c0.7-1,1.1-2.2,1.1-3.5c0-1.7-1-2.6-2.8-2.6c-1.1,0-2.1,0.5-2.8,1.4C208.2,71.3,207.8,72.5,207.9,73.7
	L207.9,73.7z M223,74.6c-0.1-2.9,1.2-5.6,3.3-7.5c2.1-2,4.8-3.1,7.7-3.1c2.4-0.1,4.7,0.7,6.6,2.2c1.7,1.4,2.7,3.6,2.6,5.8
	c0.1,2.9-1.2,5.6-3.4,7.5c-2.1,1.9-4.8,3-7.6,3c-2.4,0.1-4.7-0.7-6.6-2.2C223.9,78.9,222.9,76.8,223,74.6z M229,74.3
	c0,0.9,0.3,1.7,0.9,2.4c0.6,0.6,1.5,0.9,2.4,0.9c1.3,0,2.5-0.5,3.4-1.5c1-1,1.6-2.4,1.5-3.8c0-0.9-0.3-1.8-0.9-2.4
	c-0.6-0.6-1.4-0.9-2.3-0.9c-1.3,0-2.5,0.6-3.4,1.5C229.5,71.5,229,72.9,229,74.3z M47.8,80.9c-0.4-0.6-0.7-1.2-0.9-1.8V79l0,0
	c-0.5-1.5-0.7-3.1-0.4-4.6c0.1-0.5,0.2-1,0.3-1.5c0.1-0.2,0.1-0.4,0.2-0.6c0.2-0.5,0.3-0.9,0.6-1.3c0.1-0.1,0.1-0.3,0.2-0.4
	c1.5-2.8,3.1-5.6,4.7-8.3c0.9-1.6,1.8-3.3,2.8-4.9l-8.1-14l-22.5,39h24.3C48.5,81.9,48.1,81.4,47.8,80.9z"/>
<path fill="#006EAE" d="M70.1,82.1l4.7-24.5h7.8c3.5,0,6.3,0.9,8.3,2.6c2,1.8,3.1,4.4,3,7.2c0.1,3.9-1.3,7.7-4,10.5
	c-2.7,2.8-6.4,4.4-10.3,4.3H70.1z M77.1,77h2.5c2.3,0.1,4.5-0.9,6-2.6c1.5-1.8,2.4-4.1,2.3-6.5c0.1-1.4-0.4-2.8-1.5-3.8
	c-1.1-0.9-2.6-1.4-4.1-1.3h-2.5L77.1,77z M95.3,74.8c-0.1-2.8,1-5.6,2.9-7.7c1.9-2,4.5-3.2,7.3-3.1c2-0.1,4.1,0.5,5.6,1.9
	c1.3,1.3,2,3.1,1.9,5c0,1.2-0.3,2.3-0.7,3.5h-11.1v0.2c0,0.8,0.3,1.6,0.9,2.1c0.7,0.6,1.6,0.9,2.5,0.8c1.9-0.1,3.7-0.6,5.3-1.7
	l1.5,4.4c-1,0.7-2,1.2-3.2,1.6c-1.3,0.5-2.6,0.7-4,0.7c-2.4,0.2-4.8-0.6-6.7-2.2C96.1,78.9,95.3,76.9,95.3,74.8z M102.1,71h5.2
	c0-0.2,0-0.4,0-0.6c0-0.5-0.2-1.1-0.5-1.5c-0.4-0.4-0.9-0.6-1.4-0.6C103.8,68.4,102.4,69.5,102.1,71z M115.1,77.4
	c0-0.7,0.1-1.4,0.2-2.2l3.4-17.6h5.9l-3.3,17c-0.1,0.4-0.2,0.9-0.2,1.3c0,0.8,0.4,1.1,1.3,1.1h0.7l-1,5.1c-0.7,0.1-1.2,0.1-1.6,0.1
	C116.9,82.3,115.1,80.6,115.1,77.4z M126.9,76.6c0-0.5,0.1-0.9,0.2-1.4l1.2-5.8H126l0.9-4.6h2.4l1-5.1h5.7l-1,5.1h3.7l-0.9,4.6h-3.7
	l-1,5c-0.1,0.3-0.1,0.6-0.1,0.9c0,1.1,0.9,1.7,2.6,1.7c0.3,0,0.6,0,0.9,0l-1,5.1l-1.6,0.1c-1.8,0.1-3.6-0.4-5.1-1.4
	C127.5,79.9,126.7,78.3,126.9,76.6z M138.4,77.8c0-1.2,0.4-2.3,1.1-3.2c0.7-0.9,1.7-1.7,2.8-2.1c1.2-0.5,2.4-0.8,3.6-1.1
	c1.2-0.2,2.4-0.3,3.7-0.3h0.3c0.1-0.2,0.1-0.5,0.1-0.7c0-1-0.8-1.5-2.3-1.5c-1.8,0.2-3.5,0.7-5.1,1.6l-1.3-4.5
	c1.1-0.6,2.2-1,3.3-1.3c1.4-0.4,2.8-0.6,4.2-0.7c1.6,0,3.2,0.4,4.6,1.1c0.7,0.4,1.4,1,1.8,1.8c0.4,0.8,0.7,1.8,0.6,2.7
	c0,0.6-0.1,1.1-0.2,1.7l-2.1,10.7h-5.4l0.2-1.1l0.3-1.1h-0.1c-0.6,0.7-1.3,1.3-2.1,1.8c-0.9,0.5-2,0.8-3.1,0.8
	c-1.3,0-2.6-0.4-3.6-1.2C138.9,80.4,138.3,79.2,138.4,77.8z M144.2,76.8c0,0.8,0.5,1.2,1.5,1.2c0.8,0,1.6-0.4,2.2-1
	c0.7-0.5,1.1-1.3,1.3-2.1l0.1-0.6h-0.6c-0.4,0-0.8,0-1.2,0.1c-0.5,0.1-1,0.2-1.4,0.3c-0.5,0.1-0.9,0.4-1.3,0.7
	C144.4,75.9,144.2,76.4,144.2,76.8L144.2,76.8z M64,77.9L64,77.9c0.4-1.1,0.5-2.3,0.3-3.4c-0.1-0.4-0.1-0.7-0.2-1.1
	c0-0.2-0.1-0.3-0.1-0.5c-0.1-0.3-0.3-0.7-0.4-1c0-0.1-0.1-0.2-0.1-0.3c-1.1-2.1-2.3-4.2-3.5-6.2l-2.6-4.6l-0.1,0.1v-0.1l-2.6,4.5
	c-1.2,2.1-2.4,4.1-3.5,6.2c0,0.1-0.1,0.2-0.1,0.3c-0.2,0.3-0.3,0.7-0.4,1c0,0.2-0.1,0.3-0.1,0.5c-0.1,0.4-0.2,0.7-0.2,1.1
	c-0.2,1.2-0.1,2.3,0.3,3.4l0,0l0,0c0.2,0.5,0.4,1,0.7,1.4c1.1,1.7,2.9,2.8,4.9,3c0.1,0,0.3,0,0.4,0c0.5,0,1,0,1.5,0
	c0.2,0,0.3,0,0.4,0c2-0.2,3.8-1.3,4.9-3C63.5,78.8,63.8,78.3,64,77.9C63.9,77.8,64,77.9,64,77.9z"/>
</svg>
