<?xml version="1.0" encoding="utf-8"?>
<!-- Generator: Adobe Illustrator 17.1.0, SVG Export Plug-In . SVG Version: 6.00 Build 0)  -->
<!DOCTYPE svg PUBLIC "-//W3C//DTD SVG 1.1//EN" "http://www.w3.org/Graphics/SVG/1.1/DTD/svg11.dtd">
<svg version="1.1" id="Layer_1" xmlns="http://www.w3.org/2000/svg" xmlns:xlink="http://www.w3.org/1999/xlink" x="0px" y="0px"
	 width="256px" height="55.3px" viewBox="0 100.4 256 55.3" enable-background="new 0 100.4 256 55.3" xml:space="preserve">
<path fill="#FFFFFF" d="M33.3,102.4c0,0,4.4,11,51.4,1c45-9.6,93.3,6.9,93.3,6.9c-18.5-1.7-51.4-11.5-96.4-2
	C34.7,118.3,33.3,102.4,33.3,102.4"/>
<path fill="#62BB46" d="M0,110.9c0,0,4.4,11,51.4,1c45-9.6,89.5,6.7,89.5,6.7c-21.9-2.3-47.6-11.4-92.6-1.8
	C1.3,126.9,0,110.9,0,110.9"/>
<path fill="#FFFFFF" d="M16.5,132.7c0,1.9-1.9,3.6-5.1,3.6c-0.7,0-1.2,0-1.7-0.1l1.3-5.7c0.5-0.1,1.1-0.1,1.9-0.1
	c1.1,0,2,0.2,2.6,0.5C16.1,131.3,16.5,131.8,16.5,132.7 M23.2,132.4c0-2.3-1.2-4-3.1-5c-2-1.2-4.8-1.5-7.2-1.5
	c-2.6,0-5.2,0.2-6.9,0.6l-0.3,0.1l-5.2,22.3H1h5.9l1.8-7.9c0.5,0,1.2,0.1,2,0.1c3.3,0,6.4-0.7,8.7-2.1
	C21.5,137.5,23.2,135.3,23.2,132.4 M46.6,131.6l2-4.7l-0.4-0.2c-1.1-0.5-3.7-1-7.1-1.1c-4.6,0-8.8,1.2-11.9,3.3
	c-3.5,2.4-5.5,6.1-5.5,10.4c0,2.9,1.3,5.5,3.5,7.1c2.3,1.7,5.4,2.5,9,2.5c3.4,0,6.6-0.7,8.6-1.3l0.3-0.1l2.8-12.3h-0.6h-9.9
	l-1.1,4.6h4.1l-0.9,3.8c-0.6,0.2-1.4,0.3-2.5,0.3c-4-0.1-6.3-1.7-6.3-5.1c0-2.8,1.4-5.3,3.6-6.7c1.7-1.1,3.9-1.7,6.4-1.7
	c2.3,0,4.3,0.4,5.4,0.9L46.6,131.6z M73,131.6l2-4.7l-0.4-0.2c-1.1-0.5-3.7-1-7.1-1.1c-4.6,0-8.8,1.2-11.9,3.3
	C52,131.3,50,135,50,139.3c0,2.9,1.3,5.5,3.5,7.1c2.3,1.7,5.4,2.5,9,2.5c3.4,0,6.6-0.7,8.6-1.3l0.3-0.1l2.8-12.3h-0.6h-9.9l-1.1,4.6
	h4.1l-0.9,3.8c-0.6,0.2-1.4,0.3-2.5,0.3c-4-0.1-6.3-1.7-6.3-5.1c0-2.8,1.4-5.3,3.6-6.7c1.7-1.1,3.9-1.7,6.4-1.7
	c2.3,0,4.3,0.4,5.4,0.9L73,131.6z M106.9,148.8l12.1-22.9h-7l-4.7,10c-0.7,1.6-1.4,3.2-2,4.7c0.1-1.4,0.1-2.9,0.1-4.5l0.1-10.3h-6.9
	L93.7,136c-0.9,1.9-1.6,3.6-2.3,5.1c0-1.5,0.1-3.2,0.1-5v-10.2h-6.6l1.1,22.9h6.9l0.1-0.2l4.5-8.9c0.9-1.8,1.6-3.5,2.3-5.2
	c-0.1,1.2-0.1,2.3-0.1,3.6c0,0.4,0,0.9,0,1.3l0.2,9.4h6.9V148.8z M129.4,137.1l1.3-5.5h-0.6c-0.3,0-0.6,0-1.1,0
	c-2.3,0-4.2,1.1-5.6,2.7c0.1-0.6,0.1-1.3,0.2-1.9v-0.5h-5.7l-0.1,0.4c-0.2,1.4-0.5,4-1,6.4l-2.3,10h6.6l0.1-0.3l1.3-5.9
	c0.7-3.1,2.3-5.4,5.5-5.4c0.3,0,0.6,0,0.8,0H129.4z M139.5,131.9H133l-3.8,16.8h6.5l0.1-0.3L139.5,131.9z M140.9,127.4
	c0-0.9-0.4-1.6-1-2.1s-1.5-0.8-2.4-0.8c-2,0-3.9,1.3-3.9,3.3c0,1.7,1.5,2.9,3.3,2.9l0,0C138.9,130.7,140.9,129.6,140.9,127.4
	 M154,136.2l-0.9,3.9l0,0c-0.6,2.5-2.3,4.1-3.9,4.1c-1.5,0-2.1-0.9-2.1-2.4c0-2.8,2.3-5.7,5.4-5.7l0,0
	C153.1,136.1,153.6,136.1,154,136.2 M158.2,146.4l3-13.5l-0.4-0.1c-2.1-0.7-4.5-1.1-7.2-1.1c-4.2,0-7.6,1.3-9.8,3.3
	c-2.3,2-3.5,4.7-3.4,7.5v0.1c0,3.3,2.6,6.1,6.6,6.1c1.9,0,3.5-0.5,4.8-1.6l0,0c-0.8,3-2.6,3.9-5.3,3.9c-1.6,0-3.9-0.4-4.8-0.8
	l-0.4-0.2l-1.6,4.4l0.4,0.2c1.4,0.7,3.8,1,6.4,1.1c2.6,0,5.4-0.4,7.6-1.9C156.4,152.1,157.5,149.3,158.2,146.4 M181.8,139.3
	c0.2-0.9,0.4-2.2,0.4-3c0-1.5-0.5-2.7-1.4-3.5c-0.9-0.8-2.3-1.2-3.8-1.2c-2.2,0-4,0.7-5.5,1.8l2-8.6H167l-5.5,24.1h6.5l0.1-0.3
	l1.7-7.3c0.7-3.1,2.6-4.9,4.3-4.9c1.2,0.1,1.4,0.4,1.5,1.4c0,0.6-0.1,1.3-0.2,1.8l-2.1,9.3h6.5L181.8,139.3z M198.5,131.9h-4.1
	l1-4.4l-6.7,1.5l-0.1,0.3l-0.6,2.7h-2.5l-1,4.5h2.4l-1.3,5.8c-0.3,1.2-0.4,2.1-0.4,3c0,1.1,0.5,2.2,1.4,2.8c0.9,0.7,2.3,1.1,4,1.1
	c1.2,0,2.6-0.1,3.5-0.4l0.3-0.1l0.8-4.5l-0.6,0.1c-0.4,0.1-1,0.1-1.5,0.1c-0.6,0-0.9-0.1-1-0.3c-0.1-0.1-0.2-0.3-0.2-0.6
	c0-0.5,0.1-1.3,0.3-1.9l1.2-5h4.1L198.5,131.9z M211.5,136.7l1.6-4.1l-0.4-0.2c-1-0.5-2.8-0.9-5.1-0.9c-5,0-8.8,2.3-8.8,5.9
	c0,2.3,2.1,3.7,4.3,4.6c0.9,0.4,1.4,0.7,1.7,0.9c0.3,0.3,0.4,0.5,0.4,0.7s-0.1,0.4-0.4,0.6c-0.3,0.2-0.8,0.4-1.5,0.4
	c-1.7,0-3.8-0.6-4.8-1.1l-0.4-0.2l-1.7,4l0.3,0.2c1.3,0.8,3.6,1.3,6,1.3h0.1c2.6,0,4.8-0.5,6.5-1.5c1.6-1,2.7-2.6,2.7-4.5
	c0-2.6-2.5-3.9-4.6-4.8c-1.5-0.6-2.1-1.1-2-1.4c0-0.3,0.1-0.4,0.4-0.6c0.3-0.2,0.9-0.3,1.6-0.3c1.6,0,2.9,0.4,3.7,0.7L211.5,136.7z
	 M227.7,138.6c0,1.3-0.4,2.8-1.2,4s-1.8,2-3.2,2l0,0c-1.7,0-2.6-1-2.6-2.7c0-1.1,0.4-2.7,1.2-3.9s1.9-2.1,3.3-2.1
	C227.1,136.1,227.7,137.3,227.7,138.6 M231.1,146.1c2.1-1.9,3.4-4.5,3.4-7.5c0-1.9-0.8-3.7-2.3-5s-3.6-2-6.3-2
	c-3.5,0-6.5,1.2-8.6,3.1c-2.1,1.9-3.3,4.5-3.3,7.4c0,2.1,0.9,3.9,2.4,5.1c1.5,1.2,3.7,1.9,6.2,1.9l0,0
	C226,149.1,229,148,231.1,146.1 M256,136.4c0-1.5-0.5-2.7-1.4-3.5c-0.9-0.8-2.3-1.3-3.9-1.3c-2.2,0-4.4,0.7-6.1,2.3l0.3-1.9H239
	l-0.1,0.4c-0.2,1.4-0.5,3.1-1,5.2l-2.5,11.3h6.5l0.1-0.3l1.6-7.1c0.8-3.4,2.8-5.1,4.3-5.1c0.6,0,1,0.2,1.2,0.4
	c0.2,0.2,0.3,0.6,0.3,1.1s-0.1,1.1-0.2,1.7l-2.1,9.4h6.5l2.2-9.6C255.8,138.3,256,137.2,256,136.4"/>
</svg>
